# xmcd
#
# Track frame offsets:
#	150
#	30305
#	53472
#	74487
#	97780
#	116927
#	135827
#	159745
#	185782
#	214882
#
# Disc length: 3110 seconds
#
# Revision: 1
# Processed by: cddbd v1.5.2PL0 Copyright (c) Steve Scherf et al.
# Submitted via: audiograbber 1.83.01
#
DISCID=860c240a
DTITLE=Abdurrahman Önül - hazir misin?
DYEAR=1900
DGENRE=Ilahi
TTITLE0=onu gördüm
TTITLE1=gururlanma insanoglu
TTITLE2=Allah der
TTITLE3=Medineye
TTITLE4=Ask  Cesmesi
TTITLE5=Mekke
TTITLE6=Hazir misin
TTITLE7=Güle kosar
TTITLE8=Yak Sultanim
TTITLE9=Yüzü nur Kendisi Nur
EXTD=
EXTT0=
EXTT1=
EXTT2=
EXTT3=
EXTT4=
EXTT5=
EXTT6=
EXTT7=
EXTT8=
EXTT9=
PLAYORDER=
